<svg xmlns="http://www.w3.org/2000/svg" viewBox="0 0 32 32">
  <!-- Retro pixel-style "S" letter - clearer design -->
  <g fill="#D9FFDD">
    <!-- Top section -->
    <rect x="9" y="6" width="3" height="3"/>
    <rect x="12" y="6" width="3" height="3"/>
    <rect x="15" y="6" width="3" height="3"/>
    <rect x="18" y="6" width="3" height="3"/>
    
    <!-- Left side upper -->
    <rect x="6" y="9" width="3" height="3"/>
    <rect x="6" y="12" width="3" height="3"/>
    
    <!-- Middle bar -->
    <rect x="9" y="15" width="3" height="3"/>
    <rect x="12" y="15" width="3" height="3"/>
    <rect x="15" y="15" width="3" height="3"/>
    
    <!-- Right side lower -->
    <rect x="18" y="18" width="3" height="3"/>
    <rect x="18" y="21" width="3" height="3"/>
    
    <!-- Bottom section -->
    <rect x="6" y="24" width="3" height="3"/>
    <rect x="9" y="24" width="3" height="3"/>
    <rect x="12" y="24" width="3" height="3"/>
    <rect x="15" y="24" width="3" height="3"/>
  </g>
</svg>
